<?xml version="1.0" standalone="no"?>
<!DOCTYPE svg PUBLIC "-//W3C//DTD SVG 20010904//EN"
 "http://www.w3.org/TR/2001/REC-SVG-20010904/DTD/svg10.dtd">
<svg version="1.0" xmlns="http://www.w3.org/2000/svg"
 width="1550.000000pt" height="1780.000000pt" viewBox="0 0 1550.000000 1780.000000"
 preserveAspectRatio="xMidYMid meet">

<g transform="translate(0.000000,1780.000000) scale(0.100000,-0.100000)"
fill="#000000" stroke="none">
<path d="M3450 14863 l0 -2933 -247 -1 c-442 -1 -3182 -35 -3187 -40 -9 -9
5123 -6122 5195 -6187 41 -37 1408 -1291 3039 -2787 1632 -1496 2975 -2728
2986 -2737 23 -20 -123 -202 1167 1457 445 572 911 1171 1036 1330 125 160
261 335 303 390 43 55 451 581 909 1170 457 588 833 1074 836 1081 2 6 -512
1295 -1143 2864 -1134 2818 -1148 2852 -1166 2830 -10 -12 -18 -18 -18 -13 0
5 5 14 10 19 7 7 -883 869 -2812 2723 l-2823 2713 -5 -1620 -5 -1620 -1990
2094 c-1094 1152 -2011 2118 -2037 2146 l-48 53 0 -2932z m2561 -524 l2034
-2141 5 1660 5 1661 2406 -2312 c2099 -2017 2404 -2314 2391 -2326 -12 -13
-12 -16 2 -27 15 -10 -88 -168 -872 -1340 -489 -731 -894 -1329 -899 -1329 -5
0 -674 690 -1487 1533 -812 842 -1481 1532 -1484 1532 -4 0 -608 -1130 -1341
-2510 -1279 -2405 -1335 -2510 -1352 -2493 -10 10 -981 1168 -2159 2573
l-2140 2555 62 6 c35 4 603 12 1263 18 660 6 1273 14 1363 17 l162 6 0 2529
c0 1391 2 2529 4 2529 2 0 919 -964 2037 -2141z m3698 -5489 c793 -822 1444
-1496 1449 -1497 4 -1 437 641 962 1427 525 786 958 1426 961 1422 5 -5 1743
-4316 1809 -4488 7 -17 -237 -336 -1497 -1955 -828 -1064 -1525 -1963 -1551
-1999 -25 -36 -53 -72 -62 -80 -24 -21 -369 -468 -393 -508 -10 -17 -22 -32
-25 -32 -4 0 -43 -47 -87 -105 -44 -57 -84 -103 -88 -102 -21 6 -5357 4912
-5355 4923 2 7 543 1028 1202 2268 1144 2151 1201 2256 1217 2239 10 -10 666
-691 1458 -1513z"/>
<path d="M9352 7475 c-153 -208 -294 -531 -367 -839 -54 -231 -69 -370 -69
-666 0 -234 3 -296 22 -417 66 -424 213 -805 418 -1083 45 -61 46 -62 66 -43
36 33 139 195 200 317 189 376 278 770 278 1226 0 379 -62 719 -190 1040 -74
185 -195 405 -273 495 l-34 39 -51 -69z"/>
<path d="M12680 7409 c-171 -229 -314 -568 -380 -899 -44 -221 -54 -325 -54
-570 0 -300 28 -508 104 -773 75 -260 234 -580 364 -732 l25 -30 28 34 c102
125 236 370 308 565 47 128 109 371 129 511 84 568 -1 1139 -241 1615 -73 146
-197 340 -221 348 -5 1 -33 -29 -62 -69z"/>
</g>
</svg>
